<?xml version="1.0" encoding="UTF-8" standalone="no"?>
<svg
   xmlns:dc="http://purl.org/dc/elements/1.1/"
   xmlns:cc="http://creativecommons.org/ns#"
   xmlns:rdf="http://www.w3.org/1999/02/22-rdf-syntax-ns#"
   xmlns:svg="http://www.w3.org/2000/svg"
   xmlns="http://www.w3.org/2000/svg"
   xmlns:sodipodi="http://sodipodi.sourceforge.net/DTD/sodipodi-0.dtd"
   xmlns:inkscape="http://www.inkscape.org/namespaces/inkscape"
   height="16px"
   version="1.1"
   viewBox="0 0 16 16"
   width="16px"
   id="svg3024"
   inkscape:version="0.48.4 r9939"
   sodipodi:docname="1397755080_519895-013_MagnifyingGlass.svg">
  <metadata
     id="metadata3035">
    <rdf:RDF>
      <cc:Work
         rdf:about="">
        <dc:format>image/svg+xml</dc:format>
        <dc:type
           rdf:resource="http://purl.org/dc/dcmitype/StillImage" />
        <dc:title></dc:title>
      </cc:Work>
    </rdf:RDF>
  </metadata>
  <sodipodi:namedview
     pagecolor="#ffffff"
     bordercolor="#666666"
     borderopacity="1"
     objecttolerance="10"
     gridtolerance="10"
     guidetolerance="10"
     inkscape:pageopacity="0"
     inkscape:pageshadow="2"
     inkscape:window-width="1440"
     inkscape:window-height="953"
     id="namedview3033"
     showgrid="false"
     inkscape:zoom="1.3037281"
     inkscape:cx="-184.47197"
     inkscape:cy="-5.1285934"
     inkscape:window-x="511"
     inkscape:window-y="101"
     inkscape:window-maximized="0"
     inkscape:current-layer="svg3024" />
  <defs
     id="defs3028" />
  <g
     id="Icons with numbers"
     transform="matrix(10,0,0,10,0,-144)"
     style="fill:#f2f2f2;stroke:none">
    <g
       id="Group"
       transform="translate(-576,0)"
       style="fill:#f2f2f2">
      <path
         d="M 581.5,11 C 578.46243,11 576,8.5375663 576,5.5 576,2.4624337 578.46243,0 581.5,0 c 3.03757,0 5.5,2.4624337 5.5,5.5 0,1.2193069 -0.39677,2.3459431 -1.06825,3.2578474 L 586.04291,9.0087891 592,15 l -1,1 -6,-6 -0.15734,-0.1319613 C 583.91622,10.578062 582.75738,11 581.5,11 z m 0,-1 C 583.98528,10 586,7.9852815 586,5.5 586,3.0147185 583.98528,1 581.5,1 579.01472,1 577,3.0147185 577,5.5 c 0,2.4852815 2.01472,4.5 4.5,4.5 z M 581,3 c -1,0 -2,1 -2,2 l -1,0 c 0,-1.5 1.5,-3 3,-3 z m 0,0"
         id="Oval 283"
         inkscape:connector-curvature="0"
         style="fill:#f2f2f2" />
    </g>
  </g>
</svg>
